<svg width="40" height="40" viewBox="0 0 40 40" fill="none" xmlns="http://www.w3.org/2000/svg">
<g clip-path="url(#clip0_1_462)">
<path fill-rule="evenodd" clip-rule="evenodd" d="M13.7146 0.503418C11.4582 0.503418 9.2943 1.37789 7.69881 2.93447L0 10.4455V13.8835C0 16.3125 1.06944 18.4977 2.77401 20.0156C1.06944 21.5335 0 23.7187 0 26.1477V29.5857L7.69881 37.0968C9.2943 38.6534 11.4582 39.5278 13.7146 39.5278C16.2043 39.5278 18.4442 38.4845 20 36.8215C21.5558 38.4845 23.7957 39.5278 26.2854 39.5278C28.5418 39.5278 30.7057 38.6534 32.3012 37.0968L40 29.5857V26.1477C40 23.7187 38.9306 21.5335 37.226 20.0156C38.9306 18.4977 40 16.3125 40 13.8835V10.4455L32.3012 2.93447C30.7057 1.37789 28.5418 0.503418 26.2854 0.503418C23.7957 0.503418 21.5558 1.54677 20 3.20977C18.4442 1.54677 16.2043 0.503418 13.7146 0.503418ZM25.7588 20.0156C25.6629 19.9302 25.5688 19.8425 25.4766 19.7526L20 14.4096L14.5234 19.7526C14.4312 19.8425 14.3371 19.9302 14.2412 20.0156C14.3371 20.101 14.4312 20.1887 14.5234 20.2786L20 25.6217L25.4766 20.2786C25.5688 20.1887 25.6629 20.101 25.7588 20.0156ZM22.2222 29.5857V31.2277C22.2222 33.417 24.0414 35.1918 26.2854 35.1918C27.363 35.1918 28.3965 34.7741 29.1585 34.0307L35.5556 27.7896V26.1477C35.5556 23.9584 33.7364 22.1836 31.4924 22.1836C30.4148 22.1836 29.3813 22.6013 28.6193 23.3447L22.2222 29.5857ZM17.7778 29.5857L11.3807 23.3447C10.6187 22.6013 9.58524 22.1836 8.50762 22.1836C6.26359 22.1836 4.44444 23.9584 4.44444 26.1477V27.7896L10.8415 34.0307C11.6035 34.7741 12.637 35.1918 13.7146 35.1918C15.9586 35.1918 17.7778 33.417 17.7778 31.2277V29.5857ZM17.7778 8.80353V10.4455L11.3807 16.6865C10.6187 17.4299 9.58524 17.8476 8.50762 17.8476C6.26359 17.8476 4.44444 16.0728 4.44444 13.8835V12.2416L10.8415 6.00051C11.6035 5.2571 12.637 4.83946 13.7146 4.83946C15.9586 4.83946 17.7778 6.61423 17.7778 8.80353ZM28.6193 16.6865L22.2222 10.4455V8.80353C22.2222 6.61423 24.0414 4.83946 26.2854 4.83946C27.363 4.83946 28.3965 5.2571 29.1585 6.00051L35.5556 12.2416V13.8835C35.5556 16.0728 33.7364 17.8476 31.4924 17.8476C30.4148 17.8476 29.3813 17.4299 28.6193 16.6865Z" fill="#02090F"/>
</g>
<defs>
<clipPath id="clip0_1_462">
<rect width="40" height="40" fill="white"/>
</clipPath>
</defs>
</svg>
