<svg width="391" height="118" viewBox="0 0 391 118" fill="none" xmlns="http://www.w3.org/2000/svg">
<path d="M41.6425 65.249V96.852H43.3082C48.8606 96.852 52.9138 95.8943 55.4679 93.979C58.133 91.9572 59.4655 88.4458 59.4655 83.4446C59.4655 78.8691 58.1885 75.3045 55.6344 72.7507C60.7426 71.6867 65.4065 70.3034 69.6263 68.6009C73.8461 66.8983 77.3996 64.6638 80.2868 61.8972C84.9508 64.5574 88.2822 67.9624 90.281 72.1123C92.2799 76.1558 93.2793 81.1569 93.2793 87.1157C93.2793 97.0116 89.5037 104.62 81.9525 109.94C74.4013 115.26 62.908 117.921 47.4725 117.921H9.16136V32.8481H41.6425V50.2456H43.1417C48.1388 50.2456 51.7478 49.3412 53.9687 47.5322C56.3007 45.6169 57.4667 42.3183 57.4667 37.6364C57.4667 32.8481 56.3007 29.5494 53.9687 27.7405C51.7478 25.8252 48.1388 24.8675 43.1417 24.8675H9.16136L0 3.00085H49.971C63.4077 3.00085 73.1798 5.66103 79.2874 10.9814C85.395 16.3017 88.4487 23.7502 88.4487 33.3269C88.4487 39.3921 87.0051 44.4996 84.1179 48.6495C81.3418 52.693 77.6217 55.9384 72.9577 58.3858C68.2938 60.8331 63.2411 62.5888 57.7998 63.6529C52.3585 64.717 46.9728 65.249 41.6425 65.249Z" fill="#FF5101"/>
<path d="M300.258 109.741L333.081 68.5817L301.969 28.7698H319.391L340.703 60.3499L360.459 28.7698H379.437L348.325 68.5817L381.148 109.741H363.881L340.703 76.9632L319.08 109.741H300.258Z" fill="#FF5101"/>
<path d="M275.827 39.9955C283.397 47.878 287.183 57.7562 287.183 69.6299C287.183 81.5037 283.346 91.5814 275.671 99.8631C268.101 108.145 258.767 112.286 247.671 112.286C236.574 112.286 227.397 108.145 220.137 99.8631C212.878 91.5814 209.248 81.5037 209.248 69.6299C209.248 57.7562 212.878 47.878 220.137 39.9955C227.397 32.1129 236.626 28.1716 247.826 28.1716C258.923 28.1716 268.256 32.1129 275.827 39.9955ZM229.937 48.2273C225.685 54.1143 223.559 61.1986 223.559 69.4803C223.559 77.6622 225.634 84.9461 229.782 91.3319C234.034 97.8176 239.841 101.06 247.204 101.06C254.567 101.06 260.479 97.8675 264.938 91.4816C269.294 84.996 271.471 77.6123 271.471 69.3306C271.471 61.0489 269.294 54.0145 264.938 48.2273C260.582 42.3403 254.723 39.3968 247.36 39.3968C239.997 39.3968 234.189 42.3403 229.937 48.2273Z" fill="#FF5101"/>
<path d="M195.944 95.522L196.877 100.91C194.492 107.196 188.166 110.339 177.899 110.339C163.588 110.339 156.432 103.305 156.432 89.2359V43.4373H145.076V32.5114H156.432V9.31274H170.588V32.5114H193.766V43.4373H170.588V87.1406C170.588 95.3225 174.891 99.4134 183.499 99.4134C189.099 99.4134 193.247 98.1163 195.944 95.522Z" fill="#FF5101"/>
<path d="M107.779 19.3408V4.67322H123.335V19.3408H107.779ZM108.868 109.741V31.3143H123.024V109.741H108.868Z" fill="#FF5101"/>
<path d="M322.032 24.0894L323.466 26.227L340.537 51.522L356.288 26.3549L357.713 24.0894H389.168L354.418 68.5497L391 114.417H361.302L359.858 112.371L340.831 85.4679L323.181 112.252L321.747 114.417H290.396L326.969 68.5497L292.229 24.0894H322.032ZM301.97 28.7665L333.074 68.5863L300.252 109.74H319.079L340.698 76.9631L363.875 109.74H381.145L348.323 68.5863L379.436 28.7665H360.457L340.698 60.3464L319.393 28.7665H301.97Z" fill="#FF5101"/>
<path d="M287.181 69.6277C287.18 57.7549 283.395 47.8756 275.825 39.9935C268.728 32.6049 260.082 28.6797 249.886 28.2184L247.826 28.1728C236.628 28.1735 227.399 32.1125 220.14 39.9935L218.82 41.5008C212.442 49.1236 209.25 58.4984 209.25 69.6277C209.25 81.5014 212.881 91.5831 220.14 99.8648C226.945 107.628 235.437 111.748 245.614 112.234L247.674 112.288C258.77 112.288 268.103 108.145 275.674 99.8648C283.348 91.5831 287.181 81.5014 287.181 69.6277ZM266.616 69.3262C266.615 62.8002 265.123 57.3638 262.296 52.8466L261.004 50.9739L260.976 50.9373C257.511 46.2561 253.113 44.0769 247.361 44.0769C241.613 44.0773 237.292 46.2542 233.936 50.9008C230.335 55.8873 228.419 62.0019 228.419 69.4815L228.514 72.2038C228.919 78.4476 230.733 83.9611 233.898 88.8387C237.347 94.0986 241.674 96.3843 247.209 96.3843V101.061L245.842 101.025C239.571 100.67 234.493 97.8291 230.603 92.511L229.787 91.3326C226.157 85.7447 224.116 79.4683 223.663 72.5052L223.558 69.4815C223.558 61.1998 225.686 54.1112 229.938 48.2242C234.19 42.3386 239.999 39.4002 247.361 39.3998L248.728 39.4272C255.454 39.7727 260.862 42.7059 264.945 48.2242C269.3 54.0104 271.476 61.0464 271.477 69.3262L271.372 72.3956C270.896 79.4435 268.754 85.8052 264.945 91.4788C260.486 97.864 254.571 101.061 247.209 101.061V96.3843C252.775 96.3837 257.221 94.1075 260.862 88.9209C264.665 83.2513 266.616 76.7679 266.616 69.3262ZM292.042 69.6277C292.042 82.5495 287.83 93.7464 279.319 102.943C270.861 112.196 260.22 116.965 247.674 116.966C235.905 116.966 225.917 112.771 217.985 104.569L216.428 102.879C208.356 93.671 204.389 82.4914 204.389 69.6277C204.389 56.7682 208.356 45.7441 216.504 36.8967C224.709 27.9868 235.273 23.4963 247.826 23.4956C259.507 23.4956 269.577 27.4434 277.781 35.2159L279.395 36.8237C287.886 45.6646 292.042 56.7138 292.042 69.6277Z" fill="#FF5101"/>
<path d="M170.59 87.1394V43.4372H193.766V32.5117H170.59V9.30862H156.433V32.5117H145.078V43.4372H156.433V89.2404L156.519 91.7891C157.301 103.331 163.56 109.49 175.299 110.26L177.901 110.342C188.167 110.342 194.495 107.192 196.88 100.906L195.95 95.5254C193.253 98.1195 189.102 99.4167 183.502 99.4169V94.7398C188.414 94.7396 191.08 93.5968 192.513 92.2185L199.187 85.7874L200.744 94.7489L201.884 101.354L201.447 102.514C199.825 106.788 196.797 110.046 192.579 112.142C188.49 114.174 183.49 115.02 177.901 115.02C169.969 115.02 163.13 113.058 158.323 108.333C153.538 103.627 151.573 96.9674 151.572 89.2404V48.1144H140.217V27.8345H151.572V4.63147H175.451V27.8345H198.627V48.1144H175.451V87.1394C175.451 90.4949 176.33 92.1613 177.236 93.0224C178.154 93.8928 179.937 94.7398 183.502 94.7398V99.4169L181.936 99.3621C174.372 98.882 170.59 94.8091 170.59 87.1394Z" fill="#FF5101"/>
<path d="M108.863 31.315V109.74H123.02V31.315H108.863ZM107.781 4.67715V19.3389H123.333V4.67715H107.781ZM127.881 114.417H104.002V26.6379H127.881V114.417ZM128.194 24.0161H102.92V0H128.194V24.0161Z" fill="#FF5101"/>
<rect x="102.92" y="24.0056" width="28.0688" height="9.00204" fill="#FAF7EF"/>
</svg>
