<svg width="1056" height="319" viewBox="0 0 1056 319" fill="none" xmlns="http://www.w3.org/2000/svg">
<path d="M112.466 176.223V261.575H116.965C131.961 261.575 142.907 258.988 149.805 253.816C157.003 248.355 160.602 238.872 160.602 225.365C160.602 213.008 157.153 203.38 150.255 196.483C164.051 193.609 176.647 189.873 188.044 185.275C199.44 180.677 209.038 174.642 216.835 167.17C229.431 174.355 238.429 183.551 243.827 194.759C249.225 205.679 251.925 219.186 251.925 235.28C251.925 262.006 241.728 282.554 221.334 296.923C200.94 311.292 169.899 318.476 128.212 318.476H24.7426V88.7156H112.466V135.702H116.515C130.011 135.702 139.758 133.26 145.756 128.374C152.055 123.201 155.204 114.292 155.204 101.648C155.204 88.7156 152.055 79.8068 145.756 74.9214C139.758 69.7485 130.011 67.1621 116.515 67.1621H24.7426L0 8.10547H134.96C171.249 8.10547 197.641 15.29 214.136 29.659C230.631 44.028 238.879 64.1446 238.879 90.0088C238.879 106.39 234.98 120.184 227.182 131.392C219.684 142.312 209.637 151.077 197.041 157.687C184.445 164.297 170.799 169.038 156.103 171.912C141.408 174.786 126.862 176.223 112.466 176.223Z" fill="white"/>
<path d="M810.919 296.382L899.566 185.222L815.541 77.6992H862.595L920.152 162.99L973.508 77.6992H1024.76L940.738 185.222L1029.38 296.382H982.751L920.152 207.858L861.755 296.382H810.919Z" fill="white"/>
<path d="M744.943 108.014C765.389 129.303 775.612 155.982 775.612 188.05C775.612 220.118 765.249 247.336 744.523 269.702C724.077 292.069 698.87 303.253 668.901 303.253C638.932 303.253 614.144 292.069 594.539 269.702C574.933 247.336 565.13 220.118 565.13 188.05C565.13 155.982 574.933 129.303 594.539 108.014C614.144 86.7255 639.072 76.0811 669.321 76.0811C699.29 76.0811 724.497 86.7255 744.943 108.014ZM621.006 130.247C609.523 146.146 603.781 165.279 603.781 187.646C603.781 209.743 609.383 229.415 620.586 246.662C632.07 264.178 647.754 272.936 667.64 272.936C687.526 272.936 703.491 264.313 715.535 247.066C727.298 229.55 733.18 209.608 733.18 187.242C733.18 164.875 727.298 145.876 715.535 130.247C703.771 114.347 687.946 106.398 668.06 106.398C648.175 106.398 632.49 114.347 621.006 130.247Z" fill="white"/>
<path d="M529.193 257.984L531.714 272.536C525.272 289.513 508.187 298.002 480.459 298.002C441.807 298.002 422.481 279.003 422.481 241.007V117.315H391.812V87.8074H422.481V25.1533H460.713V87.8074H523.311V117.315H460.713V235.348C460.713 257.445 472.336 268.494 495.583 268.494C510.708 268.494 521.911 264.991 529.193 257.984Z" fill="white"/>
<path d="M291.081 52.2347V12.6211H333.093V52.2347H291.081ZM294.021 296.384V84.5723H332.253V296.384H294.021Z" fill="white"/>
<path d="M869.734 65.0596L873.606 70.8327L919.711 139.148L962.252 71.1781L966.098 65.0596H1051.05L957.2 185.136L1056 309.013H975.791L971.893 303.486L920.506 230.828L872.837 303.165L868.965 309.013H784.293L883.068 185.136L789.242 65.0596H869.734ZM815.552 77.6914L899.556 185.235L810.91 296.381H861.759L920.147 207.859L982.74 296.381H1029.38L940.738 185.235L1024.77 77.6914H973.509L920.147 162.981L862.605 77.6914H815.552Z" fill="white"/>
<path d="M775.6 188.048C775.599 155.982 765.377 129.301 744.932 108.013C725.764 88.0582 702.414 77.4571 674.877 76.2113L669.313 76.0879C639.069 76.0898 614.143 86.7282 594.539 108.013L590.975 112.084C573.749 132.671 565.129 157.99 565.128 188.048C565.128 220.116 574.934 247.344 594.539 269.711C612.918 290.677 635.853 301.805 663.338 303.116L668.902 303.264C698.869 303.264 724.077 292.075 744.522 269.711C765.248 247.344 775.6 220.116 775.6 188.048ZM720.059 187.234C720.057 169.608 716.027 154.926 708.392 142.726L704.904 137.668L704.827 137.57C695.469 124.927 683.591 119.041 668.056 119.041C652.533 119.042 640.862 124.922 631.798 137.471C622.072 150.938 616.9 167.452 616.9 187.653L617.156 195.005C618.25 211.868 623.147 226.759 631.695 239.932C641.011 254.138 652.697 260.311 667.646 260.311V272.943L663.953 272.844C647.018 271.885 633.303 264.213 622.797 249.85L620.592 246.668C610.789 231.576 605.278 214.625 604.053 195.819L603.771 187.653C603.771 165.286 609.519 146.141 621.002 130.242C632.485 114.346 648.174 106.41 668.056 106.409L671.749 106.483C689.913 107.417 704.519 115.338 715.546 130.242C727.307 145.869 733.186 164.872 733.188 187.234L732.906 195.523C731.619 214.558 725.834 231.739 715.546 247.062C703.503 264.307 687.529 272.941 667.646 272.943V260.311C682.679 260.309 694.686 254.162 704.52 240.154C714.79 224.842 720.059 207.332 720.059 187.234ZM788.729 188.048C788.729 222.946 777.353 253.187 754.368 278.025C731.524 303.016 702.785 315.896 668.902 315.896C637.117 315.896 610.142 304.567 588.719 282.417L584.513 277.853C562.714 252.983 551.999 222.79 551.999 188.048C552 153.318 562.714 123.544 584.718 99.6493C606.88 75.5857 635.41 63.458 669.313 63.4561C700.861 63.4561 728.057 74.118 750.214 95.1098L754.574 99.452C777.506 123.329 788.728 153.171 788.729 188.048Z" fill="white"/>
<path d="M460.712 235.343V117.314H523.305V87.8066H460.712V25.1407H422.479V87.8066H391.811V117.314H422.479V241.017L422.71 247.901C424.822 279.072 441.726 295.707 473.431 297.787L480.457 298.009C508.185 298.009 525.274 289.5 531.716 272.523L529.203 257.992C521.921 264.998 510.709 268.501 495.586 268.502V255.87C508.852 255.869 516.051 252.783 519.92 249.06L537.947 231.692L542.152 255.894L545.229 273.732L544.05 276.865C539.67 288.408 531.492 297.209 520.1 302.869C509.055 308.357 495.554 310.641 480.457 310.641C459.036 310.641 440.564 305.343 427.582 292.581C414.66 279.872 409.352 261.886 409.35 241.017V129.946H378.682V75.1747H409.35V12.5088H473.841V75.1747H536.434V129.946H473.841V235.343C473.841 244.406 476.215 248.906 478.662 251.231C481.14 253.582 485.957 255.87 495.586 255.87V268.502L491.355 268.354C470.927 267.057 460.712 256.057 460.712 235.343Z" fill="white"/>
<path d="M294.011 84.5743V296.38H332.244V84.5743H294.011ZM291.088 12.6319V52.2298H333.09V12.6319H291.088ZM345.373 309.012H280.882V71.9425H345.373V309.012ZM346.219 64.8617H277.959V0H346.219V64.8617Z" fill="white"/>
<rect x="277.959" y="64.832" width="75.807" height="24.3124" fill="#02090F"/>
</svg>
