<svg width="107" height="32" viewBox="0 0 107 32" fill="none" xmlns="http://www.w3.org/2000/svg">
<path d="M11.3005 17.7066V26.2826H11.7525C13.2592 26.2826 14.3591 26.0227 15.0522 25.503C15.7754 24.9543 16.137 24.0014 16.137 22.6443C16.137 21.4026 15.7905 20.4353 15.0974 19.7423C16.4836 19.4535 17.7492 19.0781 18.8944 18.6161C20.0395 18.1541 21.0038 17.5477 21.7873 16.797C23.0529 17.5189 23.957 18.4429 24.4994 19.569C25.0418 20.6663 25.313 22.0235 25.313 23.6405C25.313 26.3259 24.2884 28.3905 22.2393 29.8343C20.1901 31.2781 17.0712 32 12.8825 32H2.4861V8.91392H11.3005V13.6351H11.7073C13.0633 13.6351 14.0427 13.3896 14.6454 12.8988C15.2782 12.379 15.5946 11.4838 15.5946 10.2133C15.5946 8.91392 15.2782 8.01877 14.6454 7.52789C14.0427 7.00813 13.0633 6.74825 11.7073 6.74825H2.4861L0 0.814301H13.5605C17.2068 0.814301 19.8587 1.53619 21.5161 2.97997C23.1735 4.42376 24.0022 6.44505 24.0022 9.04386C24.0022 10.6898 23.6104 12.0758 22.8269 13.202C22.0736 14.2992 21.064 15.1799 19.7984 15.8441C18.5327 16.5082 17.1616 16.9847 15.685 17.2734C14.2084 17.5622 12.7469 17.7066 11.3005 17.7066Z" fill="#02090F"/>
<path d="M81.48 29.7803L90.387 18.611L81.9443 7.8073H86.6722L92.4555 16.3772L97.8166 7.8073H102.967L94.524 18.611L103.431 29.7803H98.7453L92.4555 20.8855L86.5878 29.7803H81.48Z" fill="#02090F"/>
<path d="M74.8508 10.8535C76.9052 12.9926 77.9324 15.6732 77.9324 18.8954C77.9324 22.1175 76.8912 24.8523 74.8086 27.0997C72.7542 29.3471 70.2214 30.4708 67.2102 30.4708C64.199 30.4708 61.7084 29.3471 59.7384 27.0997C57.7684 24.8523 56.7834 22.1175 56.7834 18.8954C56.7834 15.6732 57.7684 12.9926 59.7384 10.8535C61.7084 8.7144 64.213 7.64486 67.2524 7.64486C70.2636 7.64486 72.7964 8.7144 74.8508 10.8535ZM62.3978 13.0873C61.244 14.6849 60.6671 16.6074 60.6671 18.8548C60.6671 21.0751 61.2299 23.0517 62.3556 24.7846C63.5095 26.5446 65.0854 27.4246 67.0835 27.4246C69.0817 27.4246 70.6858 26.5582 71.8959 24.8252C73.0779 23.0652 73.6688 21.0615 73.6688 18.8141C73.6688 16.5667 73.0779 14.6578 71.8959 13.0873C70.7139 11.4898 69.1239 10.691 67.1258 10.691C65.1277 10.691 63.5517 11.4898 62.3978 13.0873Z" fill="#02090F"/>
<path d="M53.1725 25.9218L53.4257 27.384C52.7785 29.0898 51.0618 29.9428 48.2757 29.9428C44.3921 29.9428 42.4502 28.0338 42.4502 24.216V11.7876H39.3687V8.82267H42.4502V2.52726H46.2917V8.82267H52.5815V11.7876H46.2917V23.6474C46.2917 25.8677 47.4596 26.9778 49.7954 26.9778C51.3151 26.9778 52.4408 26.6258 53.1725 25.9218Z" fill="#02090F"/>
<path d="M29.2473 5.24851V1.26818H33.4687V5.24851H29.2473ZM29.5428 29.7803V8.49775H33.3842V29.7803H29.5428Z" fill="#02090F"/>
<path d="M87.3896 6.53706L87.7787 7.11714L92.4112 13.9814L96.6856 7.15184L97.0721 6.53706H105.608L96.1781 18.6022L106.105 31.0492H98.046L97.6544 30.4939L92.4911 23.1933L87.7014 30.4617L87.3123 31.0492H78.8047L88.7294 18.6022L79.302 6.53706H87.3896ZM81.9455 7.80629L90.3861 18.6122L81.4791 29.78H86.5883L92.455 20.8854L98.7443 29.78H103.431L94.524 18.6122L102.967 7.80629H97.8167L92.455 16.3761L86.6733 7.80629H81.9455Z" fill="#02090F"/>
<path d="M77.9313 18.8948C77.9311 15.6729 76.904 12.9919 74.8498 10.853C72.9238 8.84792 70.5776 7.78273 67.8107 7.65755L67.2516 7.64516C64.2128 7.64535 61.7083 8.71428 59.7385 10.853L59.3804 11.262C57.6495 13.3306 56.7834 15.8746 56.7833 18.8948C56.7833 22.1169 57.7686 24.8528 59.7385 27.1002C61.5852 29.2068 63.8896 30.3249 66.6513 30.4567L67.2104 30.4716C70.2214 30.4715 72.7542 29.3473 74.8085 27.1002C76.8911 24.8528 77.9313 22.1169 77.9313 18.8948ZM72.3505 18.813C72.3504 17.042 71.9455 15.5667 71.1782 14.3409L70.8278 13.8327L70.8201 13.8228C69.8798 12.5524 68.6863 11.9611 67.1254 11.9611C65.5657 11.9612 64.3929 12.5519 63.4822 13.8129C62.505 15.166 61.9853 16.8254 61.9853 18.8551L62.011 19.5938C62.121 21.2882 62.613 22.7844 63.4719 24.108C64.4079 25.5354 65.5821 26.1557 67.0842 26.1557V27.4249L66.7131 27.415C65.0115 27.3186 63.6334 26.5478 62.5779 25.1046L62.3563 24.7848C61.3712 23.2684 60.8175 21.5652 60.6944 19.6756L60.6661 18.8551C60.6661 16.6077 61.2437 14.6841 62.3975 13.0865C63.5512 11.4893 65.1276 10.6919 67.1254 10.6918L67.4964 10.6993C69.3215 10.793 70.7891 11.589 71.8971 13.0865C73.0789 14.6567 73.6695 16.5661 73.6697 18.813L73.6414 19.6459C73.5121 21.5585 72.9308 23.2848 71.8971 24.8245C70.6871 26.5572 69.082 27.4248 67.0842 27.4249V26.1557C68.5947 26.1555 69.8012 25.5378 70.7892 24.1304C71.8211 22.5918 72.3505 20.8324 72.3505 18.813ZM79.2504 18.8948C79.2504 22.4013 78.1074 25.4399 75.7979 27.9356C73.5026 30.4466 70.6149 31.7408 67.2104 31.7408C64.0167 31.7408 61.3063 30.6024 59.1537 28.3768L58.7311 27.9182C56.5407 25.4194 55.4641 22.3856 55.4641 18.8948C55.4642 15.4051 56.5407 12.4135 58.7517 10.0126C60.9785 7.59469 63.8451 6.37612 67.2516 6.37592C70.4215 6.37592 73.1541 7.44723 75.3805 9.55645L75.8185 9.99275C78.1227 12.3919 79.2503 15.3903 79.2504 18.8948Z" fill="#02090F"/>
<path d="M46.2918 23.647V11.7875H52.5811V8.82268H46.2918V2.52607H42.4502V8.82268H39.3687V11.7875H42.4502V24.2171L42.4734 24.9088C42.6856 28.0408 44.3841 29.7123 47.5698 29.9213L48.2757 29.9436C51.0618 29.9436 52.7789 29.0886 53.4262 27.3828L53.1737 25.9227C52.442 26.6266 51.3154 26.9787 49.7959 26.9787V25.7095C51.1289 25.7094 51.8522 25.3993 52.241 25.0253L54.0523 23.2801L54.4748 25.712L54.784 27.5043L54.6655 27.8191C54.2254 28.9789 53.4037 29.8632 52.259 30.4319C51.1493 30.9833 49.7927 31.2128 48.2757 31.2128C46.1233 31.2128 44.2674 30.6805 42.963 29.3982C41.6645 28.1212 41.1313 26.314 41.1311 24.2171V13.0568H38.0496V7.55344H41.1311V1.25684H47.611V7.55344H53.9002V13.0568H47.611V23.647C47.611 24.5576 47.8495 25.0097 48.0954 25.2434C48.3444 25.4796 48.8283 25.7095 49.7959 25.7095V26.9787L49.3707 26.9638C47.3182 26.8336 46.2918 25.7283 46.2918 23.647Z" fill="#02090F"/>
<path d="M29.5418 8.49794V29.78H33.3834V8.49794H29.5418ZM29.2481 1.26924V5.248H33.4684V1.26924H29.2481ZM34.7026 31.0492H28.2227V7.2287H34.7026V31.0492ZM34.7876 6.51723H27.929V0H34.7876V6.51723Z" fill="#02090F"/>
<rect x="27.929" y="6.51435" width="7.61697" height="2.44288" fill="white"/>
</svg>
