<svg width="80" height="80" viewBox="0 0 80 80" fill="none" xmlns="http://www.w3.org/2000/svg">
<circle cx="40" cy="40" r="40" fill="#FF5101"/>
<g filter="url(#filter0_d_1_5076)">
<path d="M38.5815 41.2917V53.1167H39.2047C41.2823 53.1167 42.7989 52.7583 43.7545 52.0417C44.7518 51.2852 45.2504 49.9713 45.2504 48.1C45.2504 46.388 44.7725 45.0542 43.8169 44.0986C45.7282 43.7005 47.4733 43.1829 49.0522 42.5458C50.6312 41.9088 51.9608 41.0727 53.0411 40.0375C54.7862 41.0329 56.0327 42.3069 56.7807 43.8597C57.5286 45.3727 57.9025 47.244 57.9025 49.4736C57.9025 53.1764 56.4898 56.0231 53.6644 58.0139C50.8389 60.0046 46.5384 61 40.7629 61H26.4279V29.1681H38.5815V35.6778H39.1424C41.0122 35.6778 42.3626 35.3393 43.1936 34.6625C44.0662 33.9458 44.5024 32.7116 44.5024 30.9597C44.5024 29.1681 44.0662 27.9338 43.1936 27.2569C42.3626 26.5403 41.0122 26.1819 39.1424 26.1819H26.4279L23 18H41.6978C46.7254 18 50.3819 18.9954 52.6671 20.9861C54.9524 22.9769 56.0951 25.7639 56.0951 29.3472C56.0951 31.6167 55.5549 33.5278 54.4746 35.0806C53.4358 36.5935 52.0439 37.8079 50.2988 38.7236C48.5536 39.6393 46.6631 40.2963 44.6271 40.6944C42.5911 41.0926 40.5759 41.2917 38.5815 41.2917Z" fill="white"/>
</g>
<defs>
<filter id="filter0_d_1_5076" x="19" y="18" width="42.9023" height="51" filterUnits="userSpaceOnUse" color-interpolation-filters="sRGB">
<feFlood flood-opacity="0" result="BackgroundImageFix"/>
<feColorMatrix in="SourceAlpha" type="matrix" values="0 0 0 0 0 0 0 0 0 0 0 0 0 0 0 0 0 0 127 0" result="hardAlpha"/>
<feOffset dy="4"/>
<feGaussianBlur stdDeviation="2"/>
<feComposite in2="hardAlpha" operator="out"/>
<feColorMatrix type="matrix" values="0 0 0 0 0 0 0 0 0 0 0 0 0 0 0 0 0 0 0.15 0"/>
<feBlend mode="normal" in2="BackgroundImageFix" result="effect1_dropShadow_1_5076"/>
<feBlend mode="normal" in="SourceGraphic" in2="effect1_dropShadow_1_5076" result="shape"/>
</filter>
</defs>
</svg>
